<svg width="25" height="25" viewBox="0 0 25 25" fill="none" xmlns="http://www.w3.org/2000/svg">
<path fill-rule="evenodd" clip-rule="evenodd" d="M20.8594 12.4278C20.8594 12.1516 21.0833 11.9278 21.3594 11.9278C21.6355 11.9278 21.8594 12.1516 21.8594 12.4278V19.4278C21.8594 20.8085 20.7401 21.9278 19.3594 21.9278H6.3454C4.96469 21.9278 3.8454 20.8085 3.8454 19.4278V6.42777C3.8454 5.04706 4.96469 3.92777 6.3454 3.92777H13.3594C13.538 3.92777 13.7031 4.02307 13.7924 4.17777C13.8817 4.33247 13.8817 4.52307 13.7924 4.67777C13.7031 4.83247 13.538 4.92777 13.3594 4.92777H6.3454C5.51697 4.92777 4.8454 5.59935 4.8454 6.42777V19.4278C4.8454 20.2562 5.51697 20.9278 6.3454 20.9278H19.3594C20.1878 20.9278 20.8594 20.2562 20.8594 19.4278V12.4278ZM19.7134 4.07377L21.7134 6.07377C21.8074 6.16758 21.8603 6.29495 21.8603 6.42777C21.8603 6.5606 21.8074 6.68797 21.7134 6.78177L13.7134 14.7818C13.6194 14.8755 13.4921 14.928 13.3594 14.9278H11.3594C11.0833 14.9278 10.8594 14.7039 10.8594 14.4278V12.4278C10.8592 12.2951 10.9117 12.1677 11.0054 12.0738L19.0054 4.07377C19.0992 3.97973 19.2266 3.92688 19.3594 3.92688C19.4922 3.92688 19.6196 3.97973 19.7134 4.07377ZM19.3594 5.13477L11.8594 12.6348V13.9278H13.1524L20.6524 6.42777L19.3594 5.13477Z" fill="white"/>
</svg>
